<svg width="54" height="54" viewBox="0 0 54 54" fill="none" xmlns="http://www.w3.org/2000/svg">
<g filter="url(#filter0_d_0_1810)">
<path d="M33.9834 6.33331H20.0167C13.95 6.33331 10.3334 9.94998 10.3334 16.0166V29.9666C10.3334 36.05 13.95 39.6666 20.0167 39.6666H33.9667C40.0334 39.6666 43.65 36.05 43.65 29.9833V16.0166C43.6667 9.94998 40.05 6.33331 33.9834 6.33331ZM29.9834 28C30.4667 28.4833 30.4667 29.2833 29.9834 29.7666C29.7334 30.0166 29.4167 30.1333 29.1 30.1333C28.7834 30.1333 28.4667 30.0166 28.2167 29.7666L22.3334 23.8833C21.85 23.4 21.85 22.6 22.3334 22.1166L28.2167 16.2333C28.7 15.75 29.5 15.75 29.9834 16.2333C30.4667 16.7166 30.4667 17.5166 29.9834 18L24.9834 23L29.9834 28Z" fill="white"/>
</g>
<defs>
<filter id="filter0_d_0_1810" x="-3" y="-3" width="60" height="60" filterUnits="userSpaceOnUse" color-interpolation-filters="sRGB">
<feFlood flood-opacity="0" result="BackgroundImageFix"/>
<feColorMatrix in="SourceAlpha" type="matrix" values="0 0 0 0 0 0 0 0 0 0 0 0 0 0 0 0 0 0 127 0" result="hardAlpha"/>
<feOffset dy="4"/>
<feGaussianBlur stdDeviation="5"/>
<feComposite in2="hardAlpha" operator="out"/>
<feColorMatrix type="matrix" values="0 0 0 0 0 0 0 0 0 0 0 0 0 0 0 0 0 0 0.25 0"/>
<feBlend mode="normal" in2="BackgroundImageFix" result="effect1_dropShadow_0_1810"/>
<feBlend mode="normal" in="SourceGraphic" in2="effect1_dropShadow_0_1810" result="shape"/>
</filter>
</defs>
</svg>
